# xmcd
#
# Track frame offsets: 
#        150
#        11836
#        25932
#        53771
#        65044
#        74154
#        87127
#        97910
#        116754
#        138844
#        163102
#        180239
#        191840
#        205004
#        223560
#        235110
#        245517
#        265103
#        276057
#        280610
#        294134
#        304706
#        317568
#        334920
#        348268
#
# Disc length: 4779 seconds
#
# Revision: 0
# Processed by: cddbd v1.5.2PL0 Copyright (c) Steve Scherf et al.
# Submitted via: ExactAudioCopyFreeDBPlugin 1.0
#
DISCID=6b12a919
DTITLE=Various Artist - Really the Blues - Disc 31
DYEAR=1900
DGENRE=50s
TTITLE0=Jimmy Giuffre - Ringtail Monkey
TTITLE1=One String Sam - My Baby
TTITLE2=Doc Pomus - Early One Monday Morning
TTITLE3=Johnny Cash - Mean Eyed Cat
TTITLE4=Jewels - Keep Your Feet on the Floor
TTITLE5=Washboard Willie with Calvin Frazier - Washboard Blues Part 1
TTITLE6=Arthur Gunter - She's Mine All Mine
TTITLE7=Speckled Red - Milk Cow Blues
TTITLE8=Lennie Tristano - Requiem
TTITLE9=George Russell - The Day John Brown Was Hanged
TTITLE10=Annie Ross - Don't Let the Sun Catch You Crying
TTITLE11=Sonny Boy Williamson - The Key (to Your Heart)
TTITLE12=Julie London - Motherless Child
TTITLE13=Lester Young - Blues in G
TTITLE14=Alec Wilder - Let's Get Together and Cry
TTITLE15=Jack Earls - Slow Down
TTITLE16=Joe Turner - I Want a Little Girl
TTITLE17=Carl Perkins - Dixie Fried
TTITLE18=Moondog - All Is Loneliness
TTITLE19=Jerry Lee Lewis - Tomorrow Night
TTITLE20=Rafe Brady - Ace and Jack
TTITLE21=Big Maybelle - There I Said It Again
TTITLE22=Betty Roche - Route 66
TTITLE23=Baby Face Willette - Why?
TTITLE24=Gene McKown - Knee Deep in the Blues
EXTD=
EXTT0=
EXTT1=
EXTT2=
EXTT3=
EXTT4=
EXTT5=
EXTT6=
EXTT7=
EXTT8=
EXTT9=
EXTT10=
EXTT11=
EXTT12=
EXTT13=
EXTT14=
EXTT15=
EXTT16=
EXTT17=
EXTT18=
EXTT19=
EXTT20=
EXTT21=
EXTT22=
EXTT23=
EXTT24=
PLAYORDER=
